<?xml version="1.0"?>
<svg version="1.1" xmlns="http://www.w3.org/2000/svg" width="400px" height="200px" style="border: dashed 2px #aaa"><path fill="#e00493" d="M33.39990234375,93.45947265625q0-0.275390625,0.263916015625-0.4130859375t0.57373046875-0.20654296875t0.562255859375-0.06884765625l0.25244140625,0q0.80322265625,0,1.158935546875,0.3671875t0.860595703125,0.94091796875q3.4423828125,4.97998046875,6.31103515625,10.246826171875t5.53076171875,10.659912109375q0.2294921875-6.2880859375,0.470458984375-12.656494140625t0.608154296875-12.633544921875q0-0.275390625,0.263916015625-0.458984375t0.5966796875-0.275390625t0.677001953125-0.11474609375t0.52783203125-0.02294921875q0.275390625,0,0.608154296875,0.02294921875t0.66552734375,0.1376953125t0.55078125,0.275390625t0.218017578125,0.43603515625q0.091796875,0.98681640625,0.103271484375,1.985107421875t0.011474609375,1.985107421875q0,7.3896484375-0.3212890625,14.48095703125t-0.3212890625,14.3203125l0,1.65234375q0,0.091796875-0.091796875,0.275390625q0.0458984375,0.18359375,0.1376953125,0.401611328125t0.091796875,0.309814453125q0,0.3671875-0.378662109375,0.55078125t-0.826171875,0.286865234375t-0.791748046875,0.103271484375t-0.25244140625,0q-1.17041015625,0-1.9736328125-0.642578125t-0.80322265625-1.53759765625q-1.6982421875-3.8095703125-3.385009765625-7.561767578125t-3.522705078125-7.469970703125q-1.17041015625-2.3408203125-2.352294921875-4.693115234375t-2.535888671875-4.555419921875q0.0458984375,0.0458984375,0.0458984375,0.1376953125q0.2294921875,2.294921875,0.493408203125,4.578369140625t0.401611328125,4.578369140625q0.091796875,1.9736328125,0.20654296875,3.9931640625t0.3671875,3.9931640625q0,0.75732421875-0.470458984375,0.9638671875t-1.090087890625,0.20654296875q-0.52783203125,0-0.998291015625-0.1376953125t-0.562255859375-0.6884765625q0-2.111328125-0.16064453125-4.486572265625t-0.29833984375-4.784912109375q-0.2294921875-3.18994140625-0.608154296875-6.483154296875t-0.378662109375-6.437255859375q0-0.1376953125,0.02294921875-0.286865234375t0.02294921875-0.332763671875q-0.1376953125-0.2294921875-0.309814453125-0.48193359375t-0.172119140625-0.458984375z M58.751215820312,122.97216796875q0-0.1376953125,0.091796875-0.975341796875t0.240966796875-2.04248046875t0.332763671875-2.59326171875t0.3212890625-2.627685546875t0.240966796875-2.18017578125t0.103271484375-1.26220703125q-0.18359375-0.091796875-0.447509765625-0.263916015625t-0.263916015625-0.401611328125q0-0.3212890625,0.309814453125-0.516357421875t0.539306640625-0.286865234375q0.091796875-1.17041015625,0.2294921875-3.2587890625t0.424560546875-4.509521484375t0.80322265625-4.9111328125t1.365478515625-4.52099609375t2.04248046875-3.316162109375t2.9375-1.28515625t2.8916015625,1.1015625t1.870361328125,2.86865234375t1.1015625,3.92431640625t0.57373046875,4.29150390625t0.240966796875,3.9931640625t0.091796875,2.9833984375q0.0458984375,0.71142578125,0.34423828125,0.952392578125t0.654052734375,0.332763671875t0.642578125,0.20654296875t0.286865234375,0.57373046875q0,0.52783203125-0.642578125,0.734375t-1.009765625,0.25244140625q0.2294921875,2.86865234375,0.631103515625,5.6455078125t1.067138671875,5.599609375q0.091796875,0.52783203125,0.25244140625,1.067138671875t0.16064453125,1.044189453125q0,0.3671875-0.25244140625,0.608154296875t-0.654052734375,0.378662109375t-0.80322265625,0.18359375t-0.677001953125,0.0458984375q-1.03271484375,0-1.744140625-0.39013671875t-0.94091796875-1.49169921875q-0.61962890625-2.96044921875-1.21630859375-6.21923828125q-0.5048828125-2.82275390625-0.5048828125-5.48486328125q0-0.4130859375,0.02294921875-0.826171875q-1.927734375,0-3.87841796875,0.091796875t-3.74072265625,0.6884765625q-0.0458984375,0.61962890625-0.2294921875,2.3408203125t-0.4130859375,3.69482421875t-0.470458984375,3.775146484375t-0.286865234375,2.558837890625q-0.0458984375,0.3212890625-0.470458984375,0.608154296875t-0.91796875,0.309814453125t-0.8720703125-0.309814453125t-0.378662109375-1.181884765625z M63.042719726562,109.06494140625q1.7900390625-0.4130859375,3.591552734375-0.48193359375t3.637451171875-0.16064453125q-0.091796875-0.57373046875-0.0458984375-1.181884765625t0.0458984375-1.227783203125q0-1.35400390625-0.06884765625-3.14404296875t-0.20654296875-3.6259765625t-0.355712890625-3.614501953125t-0.493408203125-3.1669921875t-0.585205078125-2.214599609375t-0.677001953125-0.826171875q-0.71142578125,0.0458984375-1.342529296875,1.227783203125t-1.1474609375,3.00634765625t-0.94091796875,4.0849609375t-0.71142578125,4.417724609375t-0.470458984375,4.01611328125t-0.2294921875,2.8916015625z M81.876455078125,91.48583984375q0-0.3671875,0.263916015625-0.608154296875t0.61962890625-0.378662109375t0.7802734375-0.18359375t0.745849609375-0.0458984375q0.66552734375,0,1.411376953125,0.18359375t1.113037109375,0.80322265625q0.66552734375,1.12451171875,0.975341796875,2.673583984375t0.585205078125,2.971923828125q0.4130859375,1.9736328125,1.0556640625,4.130859375t1.342529296875,4.394775390625t1.434326171875,4.394775390625t1.28515625,4.0390625q0.66552734375-2.77685546875,1.227783203125-5.69140625t1.07861328125-5.8291015625t1.07861328125-5.8291015625t1.227783203125-5.71435546875q0.1376953125-0.66552734375,0.20654296875-1.67529296875t0.286865234375-1.95068359375t0.631103515625-1.617919921875t1.26220703125-0.677001953125q0.89501953125,0,1.204833984375,0.493408203125t0.309814453125,1.434326171875q-0.2294921875,2.59326171875-0.745849609375,5.140625t-0.952392578125,5.0947265625q-0.61962890625,3.14404296875-1.342529296875,6.299560546875t-1.35400390625,6.322509765625t-1.07861328125,6.345458984375t-0.539306640625,6.368408203125q0.0458984375,0.1376953125,0.1376953125,0.3212890625t0.091796875,0.275390625q0,0.275390625-0.25244140625,0.516357421875t-0.631103515625,0.4130859375t-0.826171875,0.263916015625t-0.837646484375,0.091796875q-0.3671875,0-0.837646484375-0.0458984375t-0.94091796875-0.172119140625t-0.826171875-0.332763671875t-0.447509765625-0.52783203125q-0.3671875-1.07861328125-0.677001953125-2.099853515625t-0.585205078125-2.099853515625q-1.30810546875-4.70458984375-2.742431640625-9.237060546875t-2.650634765625-9.214111328125q-0.57373046875-2.111328125-0.860595703125-4.142333984375t-0.929443359375-4.004638671875q0.091796875,0.18359375,0.091796875,0.29833984375q-0.091796875-0.3212890625-0.18359375-0.608154296875t-0.20654296875-0.631103515625q0,0.091796875,0.02294921875,0.11474609375t0.02294921875,0.06884765625q0-0.0458984375-0.02294921875-0.06884765625t-0.02294921875-0.06884765625z M106.75730957031,91.107177734375q-0.057373046875-0.699951171875,0.091796875-1.21630859375t0.5966796875-0.84912109375t1.434326171875-0.332763671875l3.69482421875,0q0.75732421875,0,1.985107421875,0.080322265625t2.63916015625,0.240966796875t2.811279296875,0.493408203125t2.558837890625,0.826171875t1.8818359375,1.21630859375t0.722900390625,1.709716796875q0,1.39990234375-0.814697265625,2.627685546875t-2.04248046875,2.214599609375t-2.59326171875,1.755615234375t-2.444091796875,1.388427734375q4.2685546875,0.94091796875,6.67822265625,3.9013671875t2.40966796875,7.3896484375q0,2.3408203125-0.89501953125,4.624267578125t-2.444091796875,4.119384765625t-3.671875,2.96044921875t-4.555419921875,1.12451171875q-0.3212890625,0-0.722900390625-0.06884765625t-0.734375-0.218017578125t-0.57373046875-0.424560546875t-0.240966796875-0.71142578125q0-2.01953125,2.18017578125-2.01953125q0.3671875,0,0.860595703125,0.103271484375t0.768798828125,0.424560546875q1.26220703125-0.52783203125,2.306396484375-1.67529296875t1.76708984375-2.558837890625t1.12451171875-2.96044921875t0.401611328125-2.811279296875q0-1.5146484375-0.447509765625-3.086669921875t-1.296630859375-2.91455078125t-2.08837890625-2.260498046875t-2.845703125-1.1474609375q-0.4130859375-0.0458984375-0.906494140625-0.06884765625l-0.98681640625-0.0458984375t-0.9638671875-0.1376953125t-0.814697265625-0.3671875q0.18359375,3.8095703125,0.470458984375,7.59619140625t0.768798828125,7.59619140625q0.18359375,0.18359375,0.25244140625,0.539306640625t0.11474609375,0.75732421875t0.0458984375,0.768798828125l0,0.61962890625q0,0.4130859375-0.275390625,0.677001953125t-0.654052734375,0.424560546875t-0.80322265625,0.20654296875t-0.745849609375,0.0458984375q-1.03271484375,0-1.58349609375-0.275390625t-0.7802734375-0.80322265625t-0.29833984375-1.204833984375t-0.11474609375-1.480224609375q-0.61962890625-6.40283203125-0.89501953125-12.66796875t-0.275390625-12.66796875q0-0.75732421875-0.057373046875-1.457275390625z M110.99144042969,90.1318359375q0,2.82275390625,0.18359375,5.656982421875t0.3212890625,5.656982421875q1.03271484375-0.61962890625,2.7080078125-1.457275390625t3.247314453125-1.847412109375t2.696533203125-2.22607421875t1.12451171875-2.63916015625q0-1.12451171875-1.3310546875-1.709716796875t-3.09814453125-0.8720703125t-3.453857421875-0.355712890625t-2.398193359375-0.20654296875z M130.9037890625,122.97216796875q0-0.1376953125,0.091796875-0.975341796875t0.240966796875-2.04248046875t0.332763671875-2.59326171875t0.3212890625-2.627685546875t0.240966796875-2.18017578125t0.103271484375-1.26220703125q-0.18359375-0.091796875-0.447509765625-0.263916015625t-0.263916015625-0.401611328125q0-0.3212890625,0.309814453125-0.516357421875t0.539306640625-0.286865234375q0.091796875-1.17041015625,0.2294921875-3.2587890625t0.424560546875-4.509521484375t0.80322265625-4.9111328125t1.365478515625-4.52099609375t2.04248046875-3.316162109375t2.9375-1.28515625t2.8916015625,1.1015625t1.870361328125,2.86865234375t1.1015625,3.92431640625t0.57373046875,4.29150390625t0.240966796875,3.9931640625t0.091796875,2.9833984375q0.0458984375,0.71142578125,0.34423828125,0.952392578125t0.654052734375,0.332763671875t0.642578125,0.20654296875t0.286865234375,0.57373046875q0,0.52783203125-0.642578125,0.734375t-1.009765625,0.25244140625q0.2294921875,2.86865234375,0.631103515625,5.6455078125t1.067138671875,5.599609375q0.091796875,0.52783203125,0.25244140625,1.067138671875t0.16064453125,1.044189453125q0,0.3671875-0.25244140625,0.608154296875t-0.654052734375,0.378662109375t-0.80322265625,0.18359375t-0.677001953125,0.0458984375q-1.03271484375,0-1.744140625-0.39013671875t-0.94091796875-1.49169921875q-0.61962890625-2.96044921875-1.21630859375-6.21923828125q-0.5048828125-2.82275390625-0.5048828125-5.48486328125q0-0.4130859375,0.02294921875-0.826171875q-1.927734375,0-3.87841796875,0.091796875t-3.74072265625,0.6884765625q-0.0458984375,0.61962890625-0.2294921875,2.3408203125t-0.4130859375,3.69482421875t-0.470458984375,3.775146484375t-0.286865234375,2.558837890625q-0.0458984375,0.3212890625-0.470458984375,0.608154296875t-0.91796875,0.309814453125t-0.8720703125-0.309814453125t-0.378662109375-1.181884765625z M135.19529296875,109.06494140625q1.7900390625-0.4130859375,3.591552734375-0.48193359375t3.637451171875-0.16064453125q-0.091796875-0.57373046875-0.0458984375-1.181884765625t0.0458984375-1.227783203125q0-1.35400390625-0.06884765625-3.14404296875t-0.20654296875-3.6259765625t-0.355712890625-3.614501953125t-0.493408203125-3.1669921875t-0.585205078125-2.214599609375t-0.677001953125-0.826171875q-0.71142578125,0.0458984375-1.342529296875,1.227783203125t-1.1474609375,3.00634765625t-0.94091796875,4.0849609375t-0.71142578125,4.417724609375t-0.470458984375,4.01611328125t-0.2294921875,2.8916015625z M154.02902832031,92.0595703125q0-1.07861328125,0.263916015625-1.572021484375t0.75732421875-0.6884765625t1.193359375-0.149169921875t1.640869140625,0.0458984375q2.38671875,0,4.8193359375,0.734375t4.38330078125,2.145751953125t3.14404296875,3.476806640625t1.193359375,4.75048828125q0,1.7900390625-0.516357421875,3.385009765625t-1.457275390625,2.9833984375t-2.203125,2.535888671875t-2.77685546875,1.99658203125q0.61962890625,0.61962890625,1.6064453125,2.191650390625t1.95068359375,3.3505859375t1.709716796875,3.453857421875t0.883544921875,2.5244140625l-0.275390625,0.4130859375q-0.61962890625,0.3671875-1.49169921875,0.39013671875q-0.4130859375,0-1.07861328125-0.103271484375t-0.84912109375-0.608154296875q-0.94091796875-2.63916015625-2.053955078125-5.43896484375t-2.742431640625-5.048828125l0-0.0458984375q-0.57373046875,0.2294921875-1.135986328125,0.447509765625t-1.135986328125,0.401611328125q0.18359375,2.54736328125,0.378662109375,5.014404296875t0.195068359375,4.991455078125q0,0.3212890625-0.309814453125,0.516357421875t-0.699951171875,0.309814453125t-0.791748046875,0.16064453125t-0.654052734375,0.0458984375q-0.2294921875,0-0.654052734375-0.0458984375t-0.814697265625-0.16064453125t-0.677001953125-0.332763671875t-0.286865234375-0.585205078125q0-2.54736328125-0.11474609375-5.083251953125t-0.25244140625-5.060302734375q-0.71142578125-0.458984375-0.71142578125-1.193359375q0-0.57373046875,0.55078125-0.7802734375q-0.275390625-4.84228515625-0.631103515625-9.66162109375t-0.355712890625-9.70751953125z M158.18283691406,91.34814453125q0.3212890625,4.97998046875,0.722900390625,9.84521484375t0.768798828125,9.84521484375q1.6064453125-0.458984375,2.994873046875-1.594970703125t2.398193359375-2.558837890625t1.572021484375-3.09814453125t0.562255859375-3.32763671875q0-1.8359375-0.734375-3.522705078125t-1.95068359375-2.948974609375q-1.2392578125-1.26220703125-2.845703125-1.9736328125q-1.4228515625-0.61962890625-2.9833984375-0.61962890625l-0.4130859375,0z"/><path fill="#" d=""/></svg>
